Coordinates
version=1
nRows=18
nColumns=63
inDegrees=yes

Units are S.I. units (second, meters, Newtons, ...)
If the header above contains a line with 'inDegrees', this indicates whether rotational values are in degrees (yes) or radians (no).

endheader
time	pelvis_tilt	pelvis_list	pelvis_rotation	pelvis_tx	pelvis_ty	pelvis_tz	hip_flexion_r	hip_adduction_r	hip_rotation_r	knee_angle_r	knee_angle_r_beta	ankle_angle_r	subtalar_angle_r	mtp_angle_r	hip_flexion_l	hip_adduction_l	hip_rotation_l	knee_angle_l	knee_angle_l_beta	ankle_angle_l	subtalar_angle_l	mtp_angle_l	L5_S1_Flex_Ext	L5_S1_Lat_Bending	L5_S1_axial_rotation	L4_L5_Flex_Ext	L4_L5_Lat_Bending	L4_L5_axial_rotation	L3_L4_Flex_Ext	L3_L4_Lat_Bending	L3_L4_axial_rotation	L2_L3_Flex_Ext	L2_L3_Lat_Bending	L2_L3_axial_rotation	L1_L2_Flex_Ext	L1_L2_Lat_Bending	L1_L2_axial_rotation	L1_T12_Flex_Ext	L1_T12_Lat_Bending	L1_T12_axial_rotation	Abs_r3	Abs_r2	Abs_r1	Abs_t1	Abs_t2	neck_flexion	neck_bending	neck_rotation	arm_flex_r	arm_add_r	arm_rot_r	elbow_flex_r	pro_sup_r	wrist_flex_r	wrist_dev_r	arm_flex_l	arm_add_l	arm_rot_l	elbow_flex_l	pro_sup_l	wrist_flex_l	wrist_dev_l
7.610169	0.882276	-5.309191	92.871243	0.040332	0.901276	0.633211	1.870515	-0.109592	6.639452	11.899296	0.207682	32.503722	-5.730971	0.000000	-1.367033	0.149288	-8.074891	6.712618	0.117157	33.818660	6.823590	0.000000	0.104103	-0.056991	1.896596	0.193330	-0.075799	2.015133	0.171031	-0.138569	2.015133	0.118980	-0.138569	1.659522	0.096670	-0.116217	1.540984	0.059485	-0.088280	1.422447	0.743599	-0.644698	10.548299	0.000000	0.000000	26.733620	-10.019139	-21.183501	7.867300	-8.965058	-9.902214	132.317527	84.914914	-11.383525	21.287491	2.482776	-17.695358	22.544057	116.648433	79.472900	-9.884583	10.475517
7.627119	0.858686	-5.219578	93.063105	0.039923	0.901171	0.632980	1.763360	-0.130411	6.575490	11.918257	0.208013	32.612866	-5.803580	0.000000	-1.450954	0.166046	-8.098429	6.724559	0.117366	33.918421	7.107867	0.000000	0.104109	-0.054284	1.906503	0.193340	-0.072198	2.025659	0.171040	-0.131987	2.025659	0.118986	-0.131987	1.668190	0.096675	-0.110697	1.549034	0.059488	-0.084087	1.429877	0.743637	-0.614076	10.603398	0.000000	0.000000	26.689920	-10.252720	-20.704495	6.677223	-8.569889	-9.349379	131.476697	84.878435	-11.064669	23.391193	3.799367	-17.937781	24.116676	116.212107	80.064752	-9.930630	10.500287
7.644068	0.823626	-5.110207	93.248984	0.039603	0.901069	0.632849	1.620678	-0.157091	6.517551	11.912692	0.207916	32.706099	-5.864393	0.000000	-1.537926	0.192207	-8.088667	6.741858	0.117668	34.034314	7.361301	0.000000	0.101768	-0.053711	1.934792	0.188994	-0.071436	2.055717	0.167195	-0.130594	2.055717	0.116311	-0.130594	1.692943	0.094502	-0.109528	1.572019	0.058150	-0.083199	1.451094	0.726921	-0.607594	10.760734	0.000000	0.000000	26.594553	-10.429498	-20.248450	5.510796	-8.188996	-9.023040	130.788353	85.030164	-10.778374	25.550322	5.238981	-18.082738	25.726530	115.669237	80.702431	-10.008122	10.715739
7.661017	0.778160	-4.985986	93.444770	0.039350	0.900985	0.632838	1.447083	-0.192776	6.421767	11.881730	0.207375	32.778978	-5.890581	0.000000	-1.616627	0.226234	-8.033830	6.770827	0.118173	34.161990	7.584789	0.000000	0.096954	-0.055753	1.978048	0.180054	-0.074152	2.101676	0.159286	-0.135559	2.101676	0.110809	-0.135559	1.730792	0.090032	-0.113692	1.607164	0.055400	-0.086362	1.483536	0.692534	-0.630694	11.001307	0.000000	0.000000	26.446553	-10.538366	-19.854532	4.420971	-7.868357	-8.991772	130.252558	85.592585	-10.577511	27.530773	6.819778	-18.133715	27.363493	114.987307	81.239077	-10.171071	11.143781
7.677966	0.723252	-4.852584	93.611062	0.039196	0.900915	0.632955	1.259417	-0.237992	6.312202	11.836319	0.206583	32.837217	-5.870910	0.000000	-1.684494	0.273936	-7.913524	6.806887	0.118803	34.284010	7.689626	0.000000	0.090011	-0.059387	2.022185	0.167159	-0.078984	2.148571	0.147879	-0.144393	2.148571	0.102874	-0.144393	1.769412	0.083584	-0.121101	1.643025	0.051432	-0.091990	1.516638	0.642940	-0.671794	11.246784	0.000000	0.000000	26.283372	-10.530047	-19.398202	3.536544	-7.632482	-9.143309	129.817745	86.445473	-10.627255	29.108607	8.428331	-18.068356	28.853382	114.201977	81.576412	-10.421264	11.798271
7.694915	0.669170	-4.720010	93.794044	0.039062	0.900860	0.633202	1.068141	-0.289222	6.105693	11.778635	0.205576	32.882672	-5.782953	0.000000	-1.730014	0.325159	-7.695426	6.845475	0.119476	34.390957	7.693747	0.000000	0.081629	-0.064129	2.072273	0.151594	-0.085291	2.201790	0.134109	-0.155923	2.201790	0.093294	-0.155923	1.813239	0.075801	-0.130771	1.683722	0.046643	-0.099336	1.554205	0.583070	-0.725438	11.525361	0.000000	0.000000	26.124799	-10.417023	-18.919673	2.838690	-7.526026	-9.642158	129.581500	87.204902	-10.933274	30.124279	10.131340	-17.933376	30.294975	113.277920	81.589194	-10.812682	12.681094
7.711864	0.620393	-4.597879	93.948560	0.038973	0.900802	0.633582	0.896652	-0.340365	5.878493	11.723807	0.204619	32.914875	-5.664544	0.000000	-1.751413	0.382531	-7.368415	6.877357	0.120033	34.466382	7.513455	0.000000	0.072714	-0.068507	2.113069	0.135037	-0.091114	2.245136	0.119461	-0.166567	2.245136	0.083104	-0.166567	1.848935	0.067522	-0.139699	1.716869	0.041549	-0.106117	1.584802	0.519387	-0.774963	11.752256	0.000000	0.000000	25.990123	-10.179342	-18.297160	2.469029	-7.530647	-10.368926	129.511716	87.562198	-11.619131	30.497296	11.753690	-17.728581	31.493295	112.311977	81.333588	-11.305704	13.800073
7.728814	0.582507	-4.489160	94.083828	0.038889	0.900737	0.634142	0.760987	-0.386459	5.630995	11.687860	0.203992	32.935706	-5.536805	0.000000	-1.741194	0.440696	-6.934935	6.905262	0.120520	34.513510	7.162335	0.000000	0.062683	-0.071281	2.131644	0.116408	-0.094804	2.264872	0.102982	-0.173313	2.264872	0.071640	-0.173313	1.865188	0.058207	-0.145356	1.731961	0.035817	-0.110414	1.598733	0.447737	-0.806345	11.855564	0.000000	0.000000	25.871466	-9.840052	-17.465641	2.544348	-7.605974	-11.337031	129.598078	87.181331	-12.525863	30.369160	13.190184	-17.469928	32.359758	111.350028	80.827007	-11.861169	15.084869
7.745763	0.554708	-4.404894	94.130478	0.038869	0.900681	0.634902	0.692097	-0.428289	5.423355	11.684133	0.203927	32.945887	-5.378241	0.000000	-1.697334	0.501137	-6.481391	6.921651	0.120806	34.531775	6.662102	0.000000	0.053116	-0.073084	2.127383	0.098642	-0.097202	2.260344	0.087265	-0.177697	2.260344	0.060707	-0.177697	1.861460	0.049324	-0.149034	1.728498	0.030351	-0.113208	1.595537	0.379404	-0.826745	11.831863	0.000000	0.000000	25.716565	-9.437173	-16.458087	3.161465	-7.729984	-12.508844	129.775251	86.018103	-13.442684	29.803646	14.296647	-17.153710	32.785386	110.418391	80.177246	-12.334730	16.307970
7.762712	0.516940	-4.323669	94.151616	0.038892	0.900679	0.635874	0.666254	-0.483196	5.212120	11.718840	0.204532	32.960427	-5.219275	0.000000	-1.631209	0.576224	-5.976513	6.947638	0.121259	34.525714	6.054758	0.000000	0.039810	-0.077381	2.080073	0.073931	-0.102917	2.210078	0.065404	-0.188144	2.210078	0.045499	-0.188144	1.820064	0.036968	-0.157795	1.690059	0.022747	-0.119863	1.560055	0.284360	-0.875348	11.568742	0.000000	0.000000	25.473197	-8.980658	-15.222311	4.394257	-7.906573	-13.795219	130.037453	84.069407	-14.433717	29.055760	15.013681	-16.857138	32.786809	109.591091	79.285415	-12.909301	17.418018
7.779661	0.475779	-4.269516	94.074596	0.039022	0.900759	0.637069	0.725072	-0.545013	5.051060	11.797541	0.205906	32.972651	-5.013202	0.000000	-1.531767	0.665069	-5.444896	6.967837	0.121612	34.460834	5.277885	0.000000	0.027367	-0.086014	2.003765	0.050823	-0.114398	2.129000	0.044961	-0.209134	2.129000	0.031278	-0.209134	1.753294	0.025413	-0.175399	1.628059	0.015638	-0.133235	1.502824	0.195480	-0.973005	11.144338	0.000000	0.000000	25.060310	-8.529815	-13.923856	6.211029	-8.198547	-15.127288	130.281461	81.315795	-15.183898	27.778436	15.272653	-16.535886	32.301975	108.854953	78.347476	-13.330996	18.302935
7.796610	0.424341	-4.220693	93.932154	0.039232	0.900981	0.638450	0.843308	-0.612802	4.958694	11.924020	0.208113	32.975089	-4.830038	0.000000	-1.418947	0.765108	-4.941805	6.997077	0.122122	34.341077	4.444005	0.000000	0.012561	-0.101458	1.898751	0.023327	-0.134939	2.017423	0.020636	-0.246685	2.017423	0.014356	-0.246685	1.661407	0.011664	-0.206893	1.542736	0.007177	-0.157159	1.424064	0.089721	-1.147714	10.560286	0.000000	0.000000	24.428547	-8.110142	-12.610965	8.546692	-8.671209	-16.489298	130.517754	77.891655	-15.592622	25.981098	15.078808	-16.209945	31.365359	108.208825	77.564980	-13.516935	18.860672
7.813559	0.374183	-4.193956	93.685099	0.039552	0.901346	0.639971	1.038443	-0.675153	4.975267	12.090641	0.211021	32.959860	-4.651108	0.000000	-1.285759	0.864341	-4.537794	7.030389	0.122703	34.168761	3.600807	0.000000	-0.001270	-0.124526	1.779422	-0.002359	-0.165619	1.890636	-0.002087	-0.302771	1.890636	-0.001452	-0.302771	1.556994	-0.001180	-0.253933	1.445780	-0.000726	-0.192890	1.334566	-0.009075	-1.408658	9.896610	0.000000	0.000000	23.562417	-7.712803	-11.392988	11.294763	-9.411038	-17.871844	130.767815	74.185340	-15.739595	23.638835	14.431947	-15.878804	30.009364	107.681815	76.879106	-13.422714	19.165691
7.830508	0.320628	-4.179778	93.316206	0.039979	0.901870	0.641539	1.293132	-0.734079	5.133531	12.293534	0.214563	32.925967	-4.494179	0.000000	-1.152951	0.965298	-4.303523	7.066117	0.123327	33.953058	2.819792	0.000000	-0.014241	-0.157138	1.674811	-0.026447	-0.208994	1.779486	-0.023397	-0.382066	1.779486	-0.016276	-0.382066	1.465459	-0.013224	-0.320436	1.360784	-0.008137	-0.243407	1.256108	-0.101723	-1.777580	9.314794	0.000000	0.000000	22.473697	-7.297455	-10.365611	14.190645	-10.559973	-19.421787	131.098161	71.015092	-16.058144	20.902940	13.459172	-15.570268	28.409939	107.265268	76.383499	-13.095396	19.375598
7.847458	0.274772	-4.192346	92.882770	0.040437	0.902492	0.643090	1.602269	-0.782024	5.394659	12.514623	0.218421	32.870838	-4.375535	0.000000	-1.007254	1.056572	-4.198876	7.098176	0.123887	33.701481	2.117808	0.000000	-0.025097	-0.197921	1.570702	-0.046608	-0.263235	1.668870	-0.041232	-0.481225	1.668870	-0.028684	-0.481225	1.374364	-0.023305	-0.403600	1.276195	-0.014341	-0.306579	1.178026	-0.179267	-2.238919	8.735771	0.000000	0.000000	21.299713	-6.827766	-9.475577	17.189078	-12.120521	-21.123026	131.513664	68.482725	-16.295443	17.979137	12.117186	-15.280723	26.534215	107.033069	75.967489	-12.561164	19.469761
7.864407	0.251857	-4.211001	92.292949	0.040982	0.903162	0.644529	1.947693	-0.801538	5.836886	12.765770	0.222805	32.810769	-4.275517	0.000000	-0.894174	1.132879	-4.327042	7.105436	0.124013	33.448306	1.501775	0.000000	-0.035050	-0.244495	1.510013	-0.065092	-0.325178	1.604389	-0.057584	-0.594465	1.604389	-0.040059	-0.594465	1.321262	-0.032548	-0.498574	1.226886	-0.020028	-0.378723	1.132510	-0.250361	-2.765777	8.398242	0.000000	0.000000	20.113985	-6.336649	-8.864313	20.097790	-14.229124	-23.018789	132.037383	66.639742	-16.914042	14.900838	10.522441	-14.977069	24.551575	107.006243	75.911806	-11.995048	19.669172
7.881356	0.234611	-4.273233	91.654146	0.041525	0.903808	0.645731	2.321983	-0.812733	6.384177	13.000502	0.226902	32.741725	-4.215265	0.000000	-0.770007	1.198982	-4.616884	7.086817	0.123688	33.203793	1.047190	0.000000	-0.037867	-0.300315	1.504509	-0.070322	-0.399419	1.598541	-0.062211	-0.730187	1.598541	-0.043278	-0.730187	1.316445	-0.035163	-0.612403	1.222413	-0.021637	-0.465188	1.128382	-0.270477	-3.397226	8.367627	0.000000	0.000000	19.001840	-5.774115	-8.662353	22.477719	-17.097539	-25.474311	132.635594	65.495899	-18.066460	11.597888	8.795055	-14.723544	22.653507	107.152064	76.066735	-11.360034	20.001183
7.898305	0.225585	-4.339509	90.891448	0.042178	0.904394	0.646706	2.698050	-0.808909	7.065650	13.239086	0.231066	32.682862	-4.147023	0.000000	-0.685490	1.260843	-5.115120	7.024532	0.122601	33.008372	0.723089	0.000000	-0.037817	-0.361663	1.559971	-0.070230	-0.481011	1.657469	-0.062130	-0.879346	1.657469	-0.043221	-0.879346	1.364975	-0.035117	-0.737502	1.267476	-0.021609	-0.560215	1.169978	-0.270124	-4.091200	8.676090	0.000000	0.000000	18.021975	-5.246108	-8.822002	24.698801	-20.545877	-28.074127	133.279918	65.059837	-19.631432	8.316793	6.947916	-14.491801	20.815871	107.493440	76.567351	-10.693103	20.465694
